# xmcd
#
# Track frame offsets:
#	150
#	17857
#	33949
#	52197
#	71851
#	92772
#	109569
#	132493
#	147981
#	171308
#	198259
#	219098
#	247287
#
# Disc length: 3530 seconds
#
# Revision: 2
# Processed by: cddbd v1.5.2PL0 Copyright (c) Steve Scherf et al.
# Submitted via: EasyCDDAExtractor 11.1.0.1
#
DISCID=c50dc80d
DTITLE=Various Artist - Starting All Over Again
DYEAR=2009
DGENRE=Blues
TTITLE0=Paul Jones - Lover To Cry
TTITLE1=Paul Jones - If You Love Me (Like You Say)
TTITLE2=Paul Jones featuring Eric Clapton - Chose Or Cop Out
TTITLE3=Paul Jones - Sundown
TTITLE4=Paul Jones featuring Eric Clapton - Starting All Over Again
TTITLE5=Paul Jones - I'm Gone
TTITLE6=Paul Jones - Philosopher's Stone
TTITLE7=Paul Jones - Still True
TTITLE8=Paul Jones - Need To Know
TTITLE9=Paul Jones - Gratefully Blue
TTITLE10=Paul Jones - When He Comes
TTITLE11=Paul Jones - Alvino's Entourage
TTITLE12=Paul Jones - Big Blue Diamonds
EXTD=
EXTT0=
EXTT1=
EXTT2=
EXTT3=
EXTT4=
EXTT5=
EXTT6=
EXTT7=
EXTT8=
EXTT9=
EXTT10=
EXTT11=
EXTT12=
PLAYORDER=
